<mxfile host="app.diagrams.net" modified="2021-06-05T10:41:56.219Z" agent="5.0 (Windows NT 10.0; Win64; x64) AppleWebKit/537.36 (KHTML, like Gecko) Chrome/88.0.4324.182 Safari/537.36" etag="vIuR4decprqrZAMAj3_Q" version="14.7.6" type="github" pages="2">
  <diagram id="sYsJsQVpLxdmxUYyXWgQ" name="Page-1">
    <mxGraphModel dx="2454" dy="1490" grid="1" gridSize="10" guides="1" tooltips="1" connect="1" arrows="1" fold="1" page="1" pageScale="1" pageWidth="3300" pageHeight="4681" math="0" shadow="0">
      <root>
        <mxCell id="0" />
        <mxCell id="1" parent="0" />
        <mxCell id="hcDw8LefCSgww1q8JTdR-18" value="" style="edgeStyle=orthogonalEdgeStyle;rounded=0;orthogonalLoop=1;jettySize=auto;html=1;" edge="1" parent="1" source="hcDw8LefCSgww1q8JTdR-1" target="hcDw8LefCSgww1q8JTdR-17">
          <mxGeometry relative="1" as="geometry" />
        </mxCell>
        <mxCell id="hcDw8LefCSgww1q8JTdR-1" value="FUNCTION register_interface(data_clients, space_clients)" style="shape=process;whiteSpace=wrap;html=1;backgroundOutline=1;" vertex="1" parent="1">
          <mxGeometry x="160" y="80" width="290" height="60" as="geometry" />
        </mxCell>
        <mxCell id="hcDw8LefCSgww1q8JTdR-8" value="" style="edgeStyle=orthogonalEdgeStyle;rounded=0;orthogonalLoop=1;jettySize=auto;html=1;" edge="1" parent="1" source="hcDw8LefCSgww1q8JTdR-4" target="hcDw8LefCSgww1q8JTdR-7">
          <mxGeometry relative="1" as="geometry" />
        </mxCell>
        <mxCell id="hcDw8LefCSgww1q8JTdR-4" value="prev_id = data_clients[-1][0]" style="rounded=1;whiteSpace=wrap;html=1;" vertex="1" parent="1">
          <mxGeometry x="190" y="260" width="230" height="40" as="geometry" />
        </mxCell>
        <mxCell id="hcDw8LefCSgww1q8JTdR-16" style="edgeStyle=orthogonalEdgeStyle;rounded=0;orthogonalLoop=1;jettySize=auto;html=1;entryX=0.5;entryY=0;entryDx=0;entryDy=0;" edge="1" parent="1" source="hcDw8LefCSgww1q8JTdR-7" target="hcDw8LefCSgww1q8JTdR-10">
          <mxGeometry relative="1" as="geometry" />
        </mxCell>
        <mxCell id="hcDw8LefCSgww1q8JTdR-7" value="sign = 0" style="rounded=1;whiteSpace=wrap;html=1;" vertex="1" parent="1">
          <mxGeometry x="190" y="340" width="230" height="40" as="geometry" />
        </mxCell>
        <mxCell id="hcDw8LefCSgww1q8JTdR-9" value="" style="edgeStyle=orthogonalEdgeStyle;rounded=0;orthogonalLoop=1;jettySize=auto;html=1;" edge="1" parent="1" source="hcDw8LefCSgww1q8JTdR-10" target="hcDw8LefCSgww1q8JTdR-12">
          <mxGeometry relative="1" as="geometry" />
        </mxCell>
        <mxCell id="hcDw8LefCSgww1q8JTdR-10" value="DECLARE data = []" style="rounded=1;whiteSpace=wrap;html=1;" vertex="1" parent="1">
          <mxGeometry x="190" y="410" width="230" height="40" as="geometry" />
        </mxCell>
        <mxCell id="hcDw8LefCSgww1q8JTdR-11" value="" style="edgeStyle=orthogonalEdgeStyle;rounded=0;orthogonalLoop=1;jettySize=auto;html=1;" edge="1" parent="1" source="hcDw8LefCSgww1q8JTdR-12" target="hcDw8LefCSgww1q8JTdR-13">
          <mxGeometry relative="1" as="geometry" />
        </mxCell>
        <mxCell id="hcDw8LefCSgww1q8JTdR-12" value="id = int(prev_id) + 1" style="rounded=1;whiteSpace=wrap;html=1;" vertex="1" parent="1">
          <mxGeometry x="190" y="490" width="230" height="40" as="geometry" />
        </mxCell>
        <mxCell id="hcDw8LefCSgww1q8JTdR-24" value="" style="edgeStyle=orthogonalEdgeStyle;rounded=0;orthogonalLoop=1;jettySize=auto;html=1;" edge="1" parent="1" source="hcDw8LefCSgww1q8JTdR-13" target="hcDw8LefCSgww1q8JTdR-22">
          <mxGeometry relative="1" as="geometry" />
        </mxCell>
        <mxCell id="hcDw8LefCSgww1q8JTdR-13" value="APPEND id TO data" style="rounded=1;whiteSpace=wrap;html=1;" vertex="1" parent="1">
          <mxGeometry x="190" y="570" width="230" height="40" as="geometry" />
        </mxCell>
        <mxCell id="hcDw8LefCSgww1q8JTdR-19" value="" style="edgeStyle=orthogonalEdgeStyle;rounded=0;orthogonalLoop=1;jettySize=auto;html=1;" edge="1" parent="1" source="hcDw8LefCSgww1q8JTdR-17" target="hcDw8LefCSgww1q8JTdR-4">
          <mxGeometry relative="1" as="geometry" />
        </mxCell>
        <mxCell id="hcDw8LefCSgww1q8JTdR-17" value="print_title(&quot;You can register here&quot;)" style="shape=process;whiteSpace=wrap;html=1;backgroundOutline=1;" vertex="1" parent="1">
          <mxGeometry x="185" y="180" width="240" height="40" as="geometry" />
        </mxCell>
        <mxCell id="hcDw8LefCSgww1q8JTdR-21" value="" style="edgeStyle=orthogonalEdgeStyle;rounded=0;orthogonalLoop=1;jettySize=auto;html=1;" edge="1" parent="1" source="hcDw8LefCSgww1q8JTdR-22" target="hcDw8LefCSgww1q8JTdR-23">
          <mxGeometry relative="1" as="geometry" />
        </mxCell>
        <mxCell id="hcDw8LefCSgww1q8JTdR-22" value="APPEND &quot;Normal&quot; TO data" style="rounded=1;whiteSpace=wrap;html=1;" vertex="1" parent="1">
          <mxGeometry x="190" y="640" width="230" height="40" as="geometry" />
        </mxCell>
        <mxCell id="hcDw8LefCSgww1q8JTdR-26" value="" style="edgeStyle=orthogonalEdgeStyle;rounded=0;orthogonalLoop=1;jettySize=auto;html=1;" edge="1" parent="1" source="hcDw8LefCSgww1q8JTdR-23" target="hcDw8LefCSgww1q8JTdR-25">
          <mxGeometry relative="1" as="geometry" />
        </mxCell>
        <mxCell id="hcDw8LefCSgww1q8JTdR-23" value="PRINT(&quot;Plase enter your Username&quot;)" style="rounded=1;whiteSpace=wrap;html=1;" vertex="1" parent="1">
          <mxGeometry x="190" y="720" width="230" height="40" as="geometry" />
        </mxCell>
        <mxCell id="hcDw8LefCSgww1q8JTdR-28" value="" style="edgeStyle=orthogonalEdgeStyle;rounded=0;orthogonalLoop=1;jettySize=auto;html=1;" edge="1" parent="1" source="hcDw8LefCSgww1q8JTdR-25" target="hcDw8LefCSgww1q8JTdR-27">
          <mxGeometry relative="1" as="geometry" />
        </mxCell>
        <mxCell id="hcDw8LefCSgww1q8JTdR-25" value="name = validation_length(space_clients[2])" style="shape=process;whiteSpace=wrap;html=1;backgroundOutline=1;" vertex="1" parent="1">
          <mxGeometry x="185" y="800" width="240" height="70" as="geometry" />
        </mxCell>
        <mxCell id="hcDw8LefCSgww1q8JTdR-35" style="edgeStyle=orthogonalEdgeStyle;rounded=0;orthogonalLoop=1;jettySize=auto;html=1;entryX=0.75;entryY=0;entryDx=0;entryDy=0;" edge="1" parent="1" source="hcDw8LefCSgww1q8JTdR-27" target="hcDw8LefCSgww1q8JTdR-31">
          <mxGeometry relative="1" as="geometry" />
        </mxCell>
        <mxCell id="hcDw8LefCSgww1q8JTdR-27" value="i = 0" style="rounded=1;whiteSpace=wrap;html=1;" vertex="1" parent="1">
          <mxGeometry x="190" y="910" width="230" height="40" as="geometry" />
        </mxCell>
        <mxCell id="hcDw8LefCSgww1q8JTdR-29" value="" style="group" vertex="1" connectable="0" parent="1">
          <mxGeometry x="184" y="1000" width="230" height="90" as="geometry" />
        </mxCell>
        <mxCell id="hcDw8LefCSgww1q8JTdR-30" value="" style="shape=hexagon;perimeter=hexagonPerimeter2;whiteSpace=wrap;html=1;fixedSize=1;" vertex="1" parent="hcDw8LefCSgww1q8JTdR-29">
          <mxGeometry width="230.00000000000003" height="90" as="geometry" />
        </mxCell>
        <mxCell id="hcDw8LefCSgww1q8JTdR-31" value="i" style="text;html=1;strokeColor=none;fillColor=none;align=center;verticalAlign=middle;whiteSpace=wrap;rounded=0;" vertex="1" parent="hcDw8LefCSgww1q8JTdR-29">
          <mxGeometry x="87.61904761904762" width="43.80952380952381" height="20" as="geometry" />
        </mxCell>
        <mxCell id="hcDw8LefCSgww1q8JTdR-32" value="0" style="text;html=1;strokeColor=none;fillColor=none;align=center;verticalAlign=middle;whiteSpace=wrap;rounded=0;" vertex="1" parent="hcDw8LefCSgww1q8JTdR-29">
          <mxGeometry x="10.952380952380953" y="35" width="43.80952380952381" height="20" as="geometry" />
        </mxCell>
        <mxCell id="hcDw8LefCSgww1q8JTdR-33" value="1" style="text;html=1;strokeColor=none;fillColor=none;align=center;verticalAlign=middle;whiteSpace=wrap;rounded=0;" vertex="1" parent="hcDw8LefCSgww1q8JTdR-29">
          <mxGeometry x="87.61904761904762" y="70" width="43.80952380952381" height="20" as="geometry" />
        </mxCell>
        <mxCell id="hcDw8LefCSgww1q8JTdR-34" value="&amp;lt;range(len(data_clients))" style="text;html=1;strokeColor=none;fillColor=none;align=center;verticalAlign=middle;whiteSpace=wrap;rounded=0;" vertex="1" parent="hcDw8LefCSgww1q8JTdR-29">
          <mxGeometry x="142.2857142857143" y="35" width="43.80952380952381" height="20" as="geometry" />
        </mxCell>
        <mxCell id="hcDw8LefCSgww1q8JTdR-46" value="" style="edgeStyle=orthogonalEdgeStyle;rounded=0;orthogonalLoop=1;jettySize=auto;html=1;" edge="1" parent="1" source="hcDw8LefCSgww1q8JTdR-37" target="hcDw8LefCSgww1q8JTdR-42">
          <mxGeometry relative="1" as="geometry" />
        </mxCell>
        <mxCell id="hcDw8LefCSgww1q8JTdR-48" style="edgeStyle=orthogonalEdgeStyle;rounded=0;orthogonalLoop=1;jettySize=auto;html=1;entryX=0.5;entryY=1;entryDx=0;entryDy=0;" edge="1" parent="1" source="hcDw8LefCSgww1q8JTdR-37" target="hcDw8LefCSgww1q8JTdR-47">
          <mxGeometry relative="1" as="geometry" />
        </mxCell>
        <mxCell id="hcDw8LefCSgww1q8JTdR-37" value="name == data_clients[i][2]" style="rhombus;whiteSpace=wrap;html=1;" vertex="1" parent="1">
          <mxGeometry x="216" y="1130" width="166" height="120" as="geometry" />
        </mxCell>
        <mxCell id="hcDw8LefCSgww1q8JTdR-38" value="" style="edgeStyle=orthogonalEdgeStyle;rounded=0;orthogonalLoop=1;jettySize=auto;html=1;" edge="1" parent="1" source="hcDw8LefCSgww1q8JTdR-30" target="hcDw8LefCSgww1q8JTdR-37">
          <mxGeometry relative="1" as="geometry" />
        </mxCell>
        <mxCell id="hcDw8LefCSgww1q8JTdR-39" value="" style="edgeStyle=orthogonalEdgeStyle;rounded=0;orthogonalLoop=1;jettySize=auto;html=1;" edge="1" parent="1" source="hcDw8LefCSgww1q8JTdR-40" target="hcDw8LefCSgww1q8JTdR-42">
          <mxGeometry relative="1" as="geometry" />
        </mxCell>
        <mxCell id="hcDw8LefCSgww1q8JTdR-40" value="PRINT(&quot;This username has been used. &quot;)" style="rounded=1;whiteSpace=wrap;html=1;" vertex="1" parent="1">
          <mxGeometry x="184" y="1270" width="230" height="40" as="geometry" />
        </mxCell>
        <mxCell id="hcDw8LefCSgww1q8JTdR-41" value="" style="edgeStyle=orthogonalEdgeStyle;rounded=0;orthogonalLoop=1;jettySize=auto;html=1;" edge="1" parent="1" source="hcDw8LefCSgww1q8JTdR-42" target="hcDw8LefCSgww1q8JTdR-44">
          <mxGeometry relative="1" as="geometry" />
        </mxCell>
        <mxCell id="hcDw8LefCSgww1q8JTdR-42" value="PRINT(&quot;&quot;)" style="rounded=1;whiteSpace=wrap;html=1;" vertex="1" parent="1">
          <mxGeometry x="184" y="1350" width="230" height="40" as="geometry" />
        </mxCell>
        <mxCell id="hcDw8LefCSgww1q8JTdR-43" value="" style="edgeStyle=orthogonalEdgeStyle;rounded=0;orthogonalLoop=1;jettySize=auto;html=1;" edge="1" parent="1" source="hcDw8LefCSgww1q8JTdR-44" target="hcDw8LefCSgww1q8JTdR-45">
          <mxGeometry relative="1" as="geometry" />
        </mxCell>
        <mxCell id="hcDw8LefCSgww1q8JTdR-44" value="sign = 1" style="rounded=1;whiteSpace=wrap;html=1;" vertex="1" parent="1">
          <mxGeometry x="184" y="1430" width="230" height="40" as="geometry" />
        </mxCell>
        <mxCell id="hcDw8LefCSgww1q8JTdR-57" value="" style="edgeStyle=orthogonalEdgeStyle;rounded=0;orthogonalLoop=1;jettySize=auto;html=1;" edge="1" parent="1" source="hcDw8LefCSgww1q8JTdR-45" target="hcDw8LefCSgww1q8JTdR-53">
          <mxGeometry relative="1" as="geometry" />
        </mxCell>
        <mxCell id="hcDw8LefCSgww1q8JTdR-45" value="BREAK" style="rounded=1;whiteSpace=wrap;html=1;" vertex="1" parent="1">
          <mxGeometry x="184" y="1500" width="230" height="40" as="geometry" />
        </mxCell>
        <mxCell id="hcDw8LefCSgww1q8JTdR-50" style="edgeStyle=orthogonalEdgeStyle;rounded=0;orthogonalLoop=1;jettySize=auto;html=1;entryX=0;entryY=0.5;entryDx=0;entryDy=0;" edge="1" parent="1" source="hcDw8LefCSgww1q8JTdR-47" target="hcDw8LefCSgww1q8JTdR-30">
          <mxGeometry relative="1" as="geometry" />
        </mxCell>
        <mxCell id="hcDw8LefCSgww1q8JTdR-47" value="i" style="ellipse;whiteSpace=wrap;html=1;aspect=fixed;" vertex="1" parent="1">
          <mxGeometry x="110" y="1025" width="40" height="40" as="geometry" />
        </mxCell>
        <mxCell id="hcDw8LefCSgww1q8JTdR-51" value="True" style="text;html=1;align=center;verticalAlign=middle;resizable=0;points=[];autosize=1;strokeColor=none;" vertex="1" parent="1">
          <mxGeometry x="300" y="1250" width="40" height="20" as="geometry" />
        </mxCell>
        <mxCell id="hcDw8LefCSgww1q8JTdR-52" value="False" style="text;html=1;align=center;verticalAlign=middle;resizable=0;points=[];autosize=1;strokeColor=none;" vertex="1" parent="1">
          <mxGeometry x="176" y="1170" width="40" height="20" as="geometry" />
        </mxCell>
        <mxCell id="hcDw8LefCSgww1q8JTdR-55" value="" style="edgeStyle=orthogonalEdgeStyle;rounded=0;orthogonalLoop=1;jettySize=auto;html=1;" edge="1" parent="1" source="hcDw8LefCSgww1q8JTdR-53" target="hcDw8LefCSgww1q8JTdR-54">
          <mxGeometry relative="1" as="geometry" />
        </mxCell>
        <mxCell id="hcDw8LefCSgww1q8JTdR-71" style="edgeStyle=orthogonalEdgeStyle;rounded=0;orthogonalLoop=1;jettySize=auto;html=1;entryX=0.5;entryY=0;entryDx=0;entryDy=0;" edge="1" parent="1" source="hcDw8LefCSgww1q8JTdR-53" target="hcDw8LefCSgww1q8JTdR-61">
          <mxGeometry relative="1" as="geometry">
            <Array as="points">
              <mxPoint x="480" y="1620" />
              <mxPoint x="480" y="160" />
              <mxPoint x="665" y="160" />
            </Array>
          </mxGeometry>
        </mxCell>
        <mxCell id="hcDw8LefCSgww1q8JTdR-53" value="sign == 1" style="rhombus;whiteSpace=wrap;html=1;" vertex="1" parent="1">
          <mxGeometry x="244" y="1570" width="110" height="100" as="geometry" />
        </mxCell>
        <mxCell id="hcDw8LefCSgww1q8JTdR-59" style="edgeStyle=orthogonalEdgeStyle;rounded=0;orthogonalLoop=1;jettySize=auto;html=1;" edge="1" parent="1" source="hcDw8LefCSgww1q8JTdR-54">
          <mxGeometry relative="1" as="geometry">
            <mxPoint x="310" y="320" as="targetPoint" />
            <Array as="points">
              <mxPoint x="100" y="1730" />
              <mxPoint x="100" y="320" />
            </Array>
          </mxGeometry>
        </mxCell>
        <mxCell id="hcDw8LefCSgww1q8JTdR-54" value="CONTINUE" style="rounded=1;whiteSpace=wrap;html=1;" vertex="1" parent="1">
          <mxGeometry x="226.5" y="1710" width="145" height="40" as="geometry" />
        </mxCell>
        <mxCell id="hcDw8LefCSgww1q8JTdR-58" value="True" style="text;html=1;align=center;verticalAlign=middle;resizable=0;points=[];autosize=1;strokeColor=none;" vertex="1" parent="1">
          <mxGeometry x="300" y="1670" width="40" height="20" as="geometry" />
        </mxCell>
        <mxCell id="hcDw8LefCSgww1q8JTdR-60" style="edgeStyle=orthogonalEdgeStyle;rounded=0;orthogonalLoop=1;jettySize=auto;html=1;entryX=0.5;entryY=0;entryDx=0;entryDy=0;" edge="1" parent="1" source="hcDw8LefCSgww1q8JTdR-61" target="hcDw8LefCSgww1q8JTdR-63">
          <mxGeometry relative="1" as="geometry" />
        </mxCell>
        <mxCell id="hcDw8LefCSgww1q8JTdR-61" value="PRINT(&quot;&quot;)" style="rounded=1;whiteSpace=wrap;html=1;" vertex="1" parent="1">
          <mxGeometry x="550" y="180" width="230" height="40" as="geometry" />
        </mxCell>
        <mxCell id="hcDw8LefCSgww1q8JTdR-62" value="" style="edgeStyle=orthogonalEdgeStyle;rounded=0;orthogonalLoop=1;jettySize=auto;html=1;" edge="1" parent="1" source="hcDw8LefCSgww1q8JTdR-63" target="hcDw8LefCSgww1q8JTdR-65">
          <mxGeometry relative="1" as="geometry" />
        </mxCell>
        <mxCell id="hcDw8LefCSgww1q8JTdR-63" value="APPEND name TO data" style="rounded=1;whiteSpace=wrap;html=1;" vertex="1" parent="1">
          <mxGeometry x="550" y="250" width="230" height="40" as="geometry" />
        </mxCell>
        <mxCell id="hcDw8LefCSgww1q8JTdR-74" value="" style="edgeStyle=orthogonalEdgeStyle;rounded=0;orthogonalLoop=1;jettySize=auto;html=1;" edge="1" parent="1" source="hcDw8LefCSgww1q8JTdR-65" target="hcDw8LefCSgww1q8JTdR-73">
          <mxGeometry relative="1" as="geometry" />
        </mxCell>
        <mxCell id="hcDw8LefCSgww1q8JTdR-65" value="PRINT(&quot;Plase enter your password&quot;)" style="rounded=1;whiteSpace=wrap;html=1;" vertex="1" parent="1">
          <mxGeometry x="550" y="330" width="230" height="40" as="geometry" />
        </mxCell>
        <mxCell id="hcDw8LefCSgww1q8JTdR-66" value="" style="edgeStyle=orthogonalEdgeStyle;rounded=0;orthogonalLoop=1;jettySize=auto;html=1;" edge="1" parent="1" source="hcDw8LefCSgww1q8JTdR-67" target="hcDw8LefCSgww1q8JTdR-69">
          <mxGeometry relative="1" as="geometry" />
        </mxCell>
        <mxCell id="hcDw8LefCSgww1q8JTdR-67" value="PRINT(&quot;&quot;)" style="rounded=1;whiteSpace=wrap;html=1;" vertex="1" parent="1">
          <mxGeometry x="550" y="500" width="230" height="40" as="geometry" />
        </mxCell>
        <mxCell id="hcDw8LefCSgww1q8JTdR-78" value="" style="edgeStyle=orthogonalEdgeStyle;rounded=0;orthogonalLoop=1;jettySize=auto;html=1;" edge="1" parent="1" source="hcDw8LefCSgww1q8JTdR-69" target="hcDw8LefCSgww1q8JTdR-77">
          <mxGeometry relative="1" as="geometry" />
        </mxCell>
        <mxCell id="hcDw8LefCSgww1q8JTdR-69" value="PRINT(&quot;Please confirm your password&quot;)" style="rounded=1;whiteSpace=wrap;html=1;" vertex="1" parent="1">
          <mxGeometry x="550" y="570" width="230" height="40" as="geometry" />
        </mxCell>
        <mxCell id="hcDw8LefCSgww1q8JTdR-72" value="False" style="text;html=1;align=center;verticalAlign=middle;resizable=0;points=[];autosize=1;strokeColor=none;" vertex="1" parent="1">
          <mxGeometry x="354" y="1600" width="40" height="20" as="geometry" />
        </mxCell>
        <mxCell id="hcDw8LefCSgww1q8JTdR-76" value="" style="edgeStyle=orthogonalEdgeStyle;rounded=0;orthogonalLoop=1;jettySize=auto;html=1;" edge="1" parent="1" source="hcDw8LefCSgww1q8JTdR-73" target="hcDw8LefCSgww1q8JTdR-67">
          <mxGeometry relative="1" as="geometry" />
        </mxCell>
        <mxCell id="hcDw8LefCSgww1q8JTdR-73" value="password_1 = validation_length(space_clients[3])" style="shape=process;whiteSpace=wrap;html=1;backgroundOutline=1;" vertex="1" parent="1">
          <mxGeometry x="545" y="405" width="240" height="50" as="geometry" />
        </mxCell>
        <mxCell id="hcDw8LefCSgww1q8JTdR-80" value="" style="edgeStyle=orthogonalEdgeStyle;rounded=0;orthogonalLoop=1;jettySize=auto;html=1;" edge="1" parent="1" source="hcDw8LefCSgww1q8JTdR-77" target="hcDw8LefCSgww1q8JTdR-79">
          <mxGeometry relative="1" as="geometry" />
        </mxCell>
        <mxCell id="hcDw8LefCSgww1q8JTdR-77" value="password_2 = validation_length(space_clients[3])" style="shape=process;whiteSpace=wrap;html=1;backgroundOutline=1;" vertex="1" parent="1">
          <mxGeometry x="545" y="650" width="240" height="50" as="geometry" />
        </mxCell>
        <mxCell id="hcDw8LefCSgww1q8JTdR-93" style="edgeStyle=orthogonalEdgeStyle;rounded=0;orthogonalLoop=1;jettySize=auto;html=1;entryX=0.5;entryY=0;entryDx=0;entryDy=0;exitX=-0.041;exitY=0.847;exitDx=0;exitDy=0;exitPerimeter=0;" edge="1" parent="1" source="hcDw8LefCSgww1q8JTdR-92" target="hcDw8LefCSgww1q8JTdR-82">
          <mxGeometry relative="1" as="geometry">
            <mxPoint x="785" y="800" as="sourcePoint" />
            <Array as="points">
              <mxPoint x="758" y="800" />
              <mxPoint x="830" y="800" />
              <mxPoint x="830" y="1080" />
              <mxPoint x="670" y="1080" />
            </Array>
          </mxGeometry>
        </mxCell>
        <mxCell id="hcDw8LefCSgww1q8JTdR-95" value="" style="edgeStyle=orthogonalEdgeStyle;rounded=0;orthogonalLoop=1;jettySize=auto;html=1;" edge="1" parent="1" source="hcDw8LefCSgww1q8JTdR-79" target="hcDw8LefCSgww1q8JTdR-94">
          <mxGeometry relative="1" as="geometry" />
        </mxCell>
        <mxCell id="hcDw8LefCSgww1q8JTdR-79" value="password_1 == password_2" style="rhombus;whiteSpace=wrap;html=1;" vertex="1" parent="1">
          <mxGeometry x="570" y="750" width="190" height="100" as="geometry" />
        </mxCell>
        <mxCell id="hcDw8LefCSgww1q8JTdR-81" style="edgeStyle=orthogonalEdgeStyle;rounded=0;orthogonalLoop=1;jettySize=auto;html=1;entryX=0.5;entryY=0;entryDx=0;entryDy=0;" edge="1" parent="1" source="hcDw8LefCSgww1q8JTdR-82" target="hcDw8LefCSgww1q8JTdR-84">
          <mxGeometry relative="1" as="geometry" />
        </mxCell>
        <mxCell id="hcDw8LefCSgww1q8JTdR-82" value="hash_object = hashlib.md5(password_1.encode())" style="rounded=1;whiteSpace=wrap;html=1;" vertex="1" parent="1">
          <mxGeometry x="555" y="1120" width="230" height="40" as="geometry" />
        </mxCell>
        <mxCell id="hcDw8LefCSgww1q8JTdR-83" value="" style="edgeStyle=orthogonalEdgeStyle;rounded=0;orthogonalLoop=1;jettySize=auto;html=1;" edge="1" parent="1" source="hcDw8LefCSgww1q8JTdR-84" target="hcDw8LefCSgww1q8JTdR-86">
          <mxGeometry relative="1" as="geometry" />
        </mxCell>
        <mxCell id="hcDw8LefCSgww1q8JTdR-84" value="md5_hash = hash_object.hexdigest()" style="rounded=1;whiteSpace=wrap;html=1;" vertex="1" parent="1">
          <mxGeometry x="555" y="1190" width="230" height="40" as="geometry" />
        </mxCell>
        <mxCell id="hcDw8LefCSgww1q8JTdR-85" value="" style="edgeStyle=orthogonalEdgeStyle;rounded=0;orthogonalLoop=1;jettySize=auto;html=1;" edge="1" parent="1" source="hcDw8LefCSgww1q8JTdR-86" target="hcDw8LefCSgww1q8JTdR-88">
          <mxGeometry relative="1" as="geometry" />
        </mxCell>
        <mxCell id="hcDw8LefCSgww1q8JTdR-86" value="password_1 = md5_hash" style="rounded=1;whiteSpace=wrap;html=1;" vertex="1" parent="1">
          <mxGeometry x="555" y="1270" width="230" height="40" as="geometry" />
        </mxCell>
        <mxCell id="hcDw8LefCSgww1q8JTdR-87" value="" style="edgeStyle=orthogonalEdgeStyle;rounded=0;orthogonalLoop=1;jettySize=auto;html=1;" edge="1" parent="1" source="hcDw8LefCSgww1q8JTdR-88" target="hcDw8LefCSgww1q8JTdR-89">
          <mxGeometry relative="1" as="geometry" />
        </mxCell>
        <mxCell id="hcDw8LefCSgww1q8JTdR-88" value="APPEND password_1 TO data" style="rounded=1;whiteSpace=wrap;html=1;" vertex="1" parent="1">
          <mxGeometry x="555" y="1350" width="230" height="40" as="geometry" />
        </mxCell>
        <mxCell id="hcDw8LefCSgww1q8JTdR-101" value="" style="edgeStyle=orthogonalEdgeStyle;rounded=0;orthogonalLoop=1;jettySize=auto;html=1;" edge="1" parent="1" source="hcDw8LefCSgww1q8JTdR-89" target="hcDw8LefCSgww1q8JTdR-100">
          <mxGeometry relative="1" as="geometry" />
        </mxCell>
        <mxCell id="hcDw8LefCSgww1q8JTdR-89" value="BREAK" style="rounded=1;whiteSpace=wrap;html=1;" vertex="1" parent="1">
          <mxGeometry x="555" y="1420" width="230" height="40" as="geometry" />
        </mxCell>
        <mxCell id="hcDw8LefCSgww1q8JTdR-92" value="True" style="text;html=1;align=center;verticalAlign=middle;resizable=0;points=[];autosize=1;strokeColor=none;" vertex="1" parent="1">
          <mxGeometry x="760" y="780" width="40" height="20" as="geometry" />
        </mxCell>
        <mxCell id="hcDw8LefCSgww1q8JTdR-97" value="" style="edgeStyle=orthogonalEdgeStyle;rounded=0;orthogonalLoop=1;jettySize=auto;html=1;" edge="1" parent="1" source="hcDw8LefCSgww1q8JTdR-94" target="hcDw8LefCSgww1q8JTdR-96">
          <mxGeometry relative="1" as="geometry" />
        </mxCell>
        <mxCell id="hcDw8LefCSgww1q8JTdR-94" value="PRINT(&quot;The password you enter are not the same. Please try again&quot;)" style="rounded=1;whiteSpace=wrap;html=1;" vertex="1" parent="1">
          <mxGeometry x="550" y="880" width="230" height="40" as="geometry" />
        </mxCell>
        <mxCell id="hcDw8LefCSgww1q8JTdR-98" style="edgeStyle=orthogonalEdgeStyle;rounded=0;orthogonalLoop=1;jettySize=auto;html=1;entryX=0;entryY=0.5;entryDx=0;entryDy=0;" edge="1" parent="1" source="hcDw8LefCSgww1q8JTdR-96" target="hcDw8LefCSgww1q8JTdR-65">
          <mxGeometry relative="1" as="geometry">
            <Array as="points">
              <mxPoint x="520" y="1020" />
              <mxPoint x="520" y="350" />
            </Array>
          </mxGeometry>
        </mxCell>
        <mxCell id="hcDw8LefCSgww1q8JTdR-96" value="PRINT(&quot;&quot;)" style="rounded=1;whiteSpace=wrap;html=1;" vertex="1" parent="1">
          <mxGeometry x="550" y="1000" width="230" height="40" as="geometry" />
        </mxCell>
        <mxCell id="hcDw8LefCSgww1q8JTdR-99" value="False" style="text;html=1;align=center;verticalAlign=middle;resizable=0;points=[];autosize=1;strokeColor=none;" vertex="1" parent="1">
          <mxGeometry x="680" y="850" width="40" height="20" as="geometry" />
        </mxCell>
        <mxCell id="hcDw8LefCSgww1q8JTdR-109" style="edgeStyle=orthogonalEdgeStyle;rounded=0;orthogonalLoop=1;jettySize=auto;html=1;entryX=0.5;entryY=0;entryDx=0;entryDy=0;" edge="1" parent="1" source="hcDw8LefCSgww1q8JTdR-100" target="hcDw8LefCSgww1q8JTdR-103">
          <mxGeometry relative="1" as="geometry" />
        </mxCell>
        <mxCell id="hcDw8LefCSgww1q8JTdR-100" value="PRINT(&quot;&quot;)" style="rounded=1;whiteSpace=wrap;html=1;" vertex="1" parent="1">
          <mxGeometry x="555" y="1510" width="230" height="40" as="geometry" />
        </mxCell>
        <mxCell id="hcDw8LefCSgww1q8JTdR-102" value="" style="edgeStyle=orthogonalEdgeStyle;rounded=0;orthogonalLoop=1;jettySize=auto;html=1;" edge="1" parent="1" source="hcDw8LefCSgww1q8JTdR-103" target="hcDw8LefCSgww1q8JTdR-104">
          <mxGeometry relative="1" as="geometry" />
        </mxCell>
        <mxCell id="hcDw8LefCSgww1q8JTdR-103" value="PRINT(&quot;Please enter your date of birth: &quot;)" style="rounded=1;whiteSpace=wrap;html=1;" vertex="1" parent="1">
          <mxGeometry x="955" y="180" width="230" height="40" as="geometry" />
        </mxCell>
        <mxCell id="hcDw8LefCSgww1q8JTdR-106" value="" style="edgeStyle=orthogonalEdgeStyle;rounded=0;orthogonalLoop=1;jettySize=auto;html=1;" edge="1" parent="1" source="hcDw8LefCSgww1q8JTdR-104" target="hcDw8LefCSgww1q8JTdR-105">
          <mxGeometry relative="1" as="geometry" />
        </mxCell>
        <mxCell id="hcDw8LefCSgww1q8JTdR-104" value="birth_date = validation_date()" style="shape=process;whiteSpace=wrap;html=1;backgroundOutline=1;" vertex="1" parent="1">
          <mxGeometry x="950" y="260" width="240" height="50" as="geometry" />
        </mxCell>
        <mxCell id="hcDw8LefCSgww1q8JTdR-108" value="" style="edgeStyle=orthogonalEdgeStyle;rounded=0;orthogonalLoop=1;jettySize=auto;html=1;" edge="1" parent="1" source="hcDw8LefCSgww1q8JTdR-105" target="hcDw8LefCSgww1q8JTdR-107">
          <mxGeometry relative="1" as="geometry" />
        </mxCell>
        <mxCell id="hcDw8LefCSgww1q8JTdR-105" value="PRINT(&quot;&quot;)" style="rounded=1;whiteSpace=wrap;html=1;" vertex="1" parent="1">
          <mxGeometry x="955" y="350" width="230" height="40" as="geometry" />
        </mxCell>
        <mxCell id="hcDw8LefCSgww1q8JTdR-119" style="edgeStyle=orthogonalEdgeStyle;rounded=0;orthogonalLoop=1;jettySize=auto;html=1;entryX=0.5;entryY=0;entryDx=0;entryDy=0;" edge="1" parent="1" source="hcDw8LefCSgww1q8JTdR-107" target="hcDw8LefCSgww1q8JTdR-111">
          <mxGeometry relative="1" as="geometry" />
        </mxCell>
        <mxCell id="hcDw8LefCSgww1q8JTdR-107" value="APPEND birth_date TO data" style="rounded=1;whiteSpace=wrap;html=1;" vertex="1" parent="1">
          <mxGeometry x="955" y="430" width="230" height="40" as="geometry" />
        </mxCell>
        <mxCell id="hcDw8LefCSgww1q8JTdR-110" value="" style="edgeStyle=orthogonalEdgeStyle;rounded=0;orthogonalLoop=1;jettySize=auto;html=1;" edge="1" parent="1" source="hcDw8LefCSgww1q8JTdR-111" target="hcDw8LefCSgww1q8JTdR-113">
          <mxGeometry relative="1" as="geometry" />
        </mxCell>
        <mxCell id="hcDw8LefCSgww1q8JTdR-111" value="PRINT(&quot;Please enter your license: &quot;)" style="rounded=1;whiteSpace=wrap;html=1;" vertex="1" parent="1">
          <mxGeometry x="955" y="510" width="230" height="40" as="geometry" />
        </mxCell>
        <mxCell id="hcDw8LefCSgww1q8JTdR-112" value="" style="edgeStyle=orthogonalEdgeStyle;rounded=0;orthogonalLoop=1;jettySize=auto;html=1;" edge="1" parent="1" source="hcDw8LefCSgww1q8JTdR-113" target="hcDw8LefCSgww1q8JTdR-115">
          <mxGeometry relative="1" as="geometry" />
        </mxCell>
        <mxCell id="hcDw8LefCSgww1q8JTdR-113" value="license = validation_length(space_clients[5])" style="shape=process;whiteSpace=wrap;html=1;backgroundOutline=1;" vertex="1" parent="1">
          <mxGeometry x="950" y="590" width="240" height="50" as="geometry" />
        </mxCell>
        <mxCell id="hcDw8LefCSgww1q8JTdR-114" value="" style="edgeStyle=orthogonalEdgeStyle;rounded=0;orthogonalLoop=1;jettySize=auto;html=1;" edge="1" parent="1" source="hcDw8LefCSgww1q8JTdR-115" target="hcDw8LefCSgww1q8JTdR-116">
          <mxGeometry relative="1" as="geometry" />
        </mxCell>
        <mxCell id="hcDw8LefCSgww1q8JTdR-115" value="PRINT(&quot;&quot;)" style="rounded=1;whiteSpace=wrap;html=1;" vertex="1" parent="1">
          <mxGeometry x="955" y="680" width="230" height="40" as="geometry" />
        </mxCell>
        <mxCell id="hcDw8LefCSgww1q8JTdR-127" style="edgeStyle=orthogonalEdgeStyle;rounded=0;orthogonalLoop=1;jettySize=auto;html=1;entryX=0.5;entryY=0;entryDx=0;entryDy=0;" edge="1" parent="1" source="hcDw8LefCSgww1q8JTdR-116" target="hcDw8LefCSgww1q8JTdR-121">
          <mxGeometry relative="1" as="geometry" />
        </mxCell>
        <mxCell id="hcDw8LefCSgww1q8JTdR-116" value="APPEND license TO data" style="rounded=1;whiteSpace=wrap;html=1;" vertex="1" parent="1">
          <mxGeometry x="955" y="760" width="230" height="40" as="geometry" />
        </mxCell>
        <mxCell id="hcDw8LefCSgww1q8JTdR-120" value="" style="edgeStyle=orthogonalEdgeStyle;rounded=0;orthogonalLoop=1;jettySize=auto;html=1;" edge="1" parent="1" source="hcDw8LefCSgww1q8JTdR-121" target="hcDw8LefCSgww1q8JTdR-123">
          <mxGeometry relative="1" as="geometry" />
        </mxCell>
        <mxCell id="hcDw8LefCSgww1q8JTdR-121" value="PRINT(&quot;Please enter your phone number: &quot;)" style="rounded=1;whiteSpace=wrap;html=1;" vertex="1" parent="1">
          <mxGeometry x="947.5" y="840" width="245" height="40" as="geometry" />
        </mxCell>
        <mxCell id="hcDw8LefCSgww1q8JTdR-122" value="" style="edgeStyle=orthogonalEdgeStyle;rounded=0;orthogonalLoop=1;jettySize=auto;html=1;" edge="1" parent="1" source="hcDw8LefCSgww1q8JTdR-123" target="hcDw8LefCSgww1q8JTdR-125">
          <mxGeometry relative="1" as="geometry" />
        </mxCell>
        <mxCell id="hcDw8LefCSgww1q8JTdR-123" value="phone = validation_number(space_clients[6])" style="shape=process;whiteSpace=wrap;html=1;backgroundOutline=1;" vertex="1" parent="1">
          <mxGeometry x="950" y="920" width="240" height="50" as="geometry" />
        </mxCell>
        <mxCell id="hcDw8LefCSgww1q8JTdR-124" value="" style="edgeStyle=orthogonalEdgeStyle;rounded=0;orthogonalLoop=1;jettySize=auto;html=1;" edge="1" parent="1" source="hcDw8LefCSgww1q8JTdR-125" target="hcDw8LefCSgww1q8JTdR-126">
          <mxGeometry relative="1" as="geometry" />
        </mxCell>
        <mxCell id="hcDw8LefCSgww1q8JTdR-125" value="PRINT(&quot;&quot;)" style="rounded=1;whiteSpace=wrap;html=1;" vertex="1" parent="1">
          <mxGeometry x="955" y="1010" width="230" height="40" as="geometry" />
        </mxCell>
        <mxCell id="hcDw8LefCSgww1q8JTdR-135" style="edgeStyle=orthogonalEdgeStyle;rounded=0;orthogonalLoop=1;jettySize=auto;html=1;entryX=0.5;entryY=0;entryDx=0;entryDy=0;" edge="1" parent="1" source="hcDw8LefCSgww1q8JTdR-126" target="hcDw8LefCSgww1q8JTdR-129">
          <mxGeometry relative="1" as="geometry" />
        </mxCell>
        <mxCell id="hcDw8LefCSgww1q8JTdR-126" value="APPEND phone TO data" style="rounded=1;whiteSpace=wrap;html=1;" vertex="1" parent="1">
          <mxGeometry x="955" y="1090" width="230" height="40" as="geometry" />
        </mxCell>
        <mxCell id="hcDw8LefCSgww1q8JTdR-128" value="" style="edgeStyle=orthogonalEdgeStyle;rounded=0;orthogonalLoop=1;jettySize=auto;html=1;" edge="1" parent="1" source="hcDw8LefCSgww1q8JTdR-129" target="hcDw8LefCSgww1q8JTdR-131">
          <mxGeometry relative="1" as="geometry" />
        </mxCell>
        <mxCell id="hcDw8LefCSgww1q8JTdR-129" value="PRINT(&quot;Please enter your email: &quot;)" style="rounded=1;whiteSpace=wrap;html=1;" vertex="1" parent="1">
          <mxGeometry x="955" y="1170" width="230" height="40" as="geometry" />
        </mxCell>
        <mxCell id="hcDw8LefCSgww1q8JTdR-130" value="" style="edgeStyle=orthogonalEdgeStyle;rounded=0;orthogonalLoop=1;jettySize=auto;html=1;" edge="1" parent="1" source="hcDw8LefCSgww1q8JTdR-131" target="hcDw8LefCSgww1q8JTdR-133">
          <mxGeometry relative="1" as="geometry" />
        </mxCell>
        <mxCell id="hcDw8LefCSgww1q8JTdR-131" value="email = validation_email(space_clients[7])" style="shape=process;whiteSpace=wrap;html=1;backgroundOutline=1;" vertex="1" parent="1">
          <mxGeometry x="950" y="1250" width="240" height="50" as="geometry" />
        </mxCell>
        <mxCell id="hcDw8LefCSgww1q8JTdR-132" value="" style="edgeStyle=orthogonalEdgeStyle;rounded=0;orthogonalLoop=1;jettySize=auto;html=1;" edge="1" parent="1" source="hcDw8LefCSgww1q8JTdR-133" target="hcDw8LefCSgww1q8JTdR-134">
          <mxGeometry relative="1" as="geometry" />
        </mxCell>
        <mxCell id="hcDw8LefCSgww1q8JTdR-133" value="PRINT(&quot;&quot;)" style="rounded=1;whiteSpace=wrap;html=1;" vertex="1" parent="1">
          <mxGeometry x="955" y="1340" width="230" height="40" as="geometry" />
        </mxCell>
        <mxCell id="hcDw8LefCSgww1q8JTdR-147" style="edgeStyle=orthogonalEdgeStyle;rounded=0;orthogonalLoop=1;jettySize=auto;html=1;entryX=0.5;entryY=0;entryDx=0;entryDy=0;" edge="1" parent="1" source="hcDw8LefCSgww1q8JTdR-134" target="hcDw8LefCSgww1q8JTdR-137">
          <mxGeometry relative="1" as="geometry" />
        </mxCell>
        <mxCell id="hcDw8LefCSgww1q8JTdR-134" value="APPEND email TO data" style="rounded=1;whiteSpace=wrap;html=1;" vertex="1" parent="1">
          <mxGeometry x="955" y="1420" width="230" height="40" as="geometry" />
        </mxCell>
        <mxCell id="hcDw8LefCSgww1q8JTdR-136" value="" style="edgeStyle=orthogonalEdgeStyle;rounded=0;orthogonalLoop=1;jettySize=auto;html=1;" edge="1" parent="1" source="hcDw8LefCSgww1q8JTdR-137" target="hcDw8LefCSgww1q8JTdR-139">
          <mxGeometry relative="1" as="geometry" />
        </mxCell>
        <mxCell id="hcDw8LefCSgww1q8JTdR-137" value="PRINT(&quot;Please enter your credit/debit card number: &quot;)" style="rounded=1;whiteSpace=wrap;html=1;" vertex="1" parent="1">
          <mxGeometry x="1265" y="180" width="230" height="40" as="geometry" />
        </mxCell>
        <mxCell id="hcDw8LefCSgww1q8JTdR-138" value="" style="edgeStyle=orthogonalEdgeStyle;rounded=0;orthogonalLoop=1;jettySize=auto;html=1;" edge="1" parent="1" source="hcDw8LefCSgww1q8JTdR-139" target="hcDw8LefCSgww1q8JTdR-141">
          <mxGeometry relative="1" as="geometry" />
        </mxCell>
        <mxCell id="hcDw8LefCSgww1q8JTdR-139" value="card = validation_number(12)" style="shape=process;whiteSpace=wrap;html=1;backgroundOutline=1;" vertex="1" parent="1">
          <mxGeometry x="1260" y="260" width="240" height="50" as="geometry" />
        </mxCell>
        <mxCell id="hcDw8LefCSgww1q8JTdR-140" value="" style="edgeStyle=orthogonalEdgeStyle;rounded=0;orthogonalLoop=1;jettySize=auto;html=1;" edge="1" parent="1" source="hcDw8LefCSgww1q8JTdR-141" target="hcDw8LefCSgww1q8JTdR-143">
          <mxGeometry relative="1" as="geometry" />
        </mxCell>
        <mxCell id="hcDw8LefCSgww1q8JTdR-141" value="PRINT(&quot;&quot;)" style="rounded=1;whiteSpace=wrap;html=1;" vertex="1" parent="1">
          <mxGeometry x="1265" y="350" width="230" height="40" as="geometry" />
        </mxCell>
        <mxCell id="hcDw8LefCSgww1q8JTdR-142" style="edgeStyle=orthogonalEdgeStyle;rounded=0;orthogonalLoop=1;jettySize=auto;html=1;entryX=0.5;entryY=0;entryDx=0;entryDy=0;" edge="1" parent="1" source="hcDw8LefCSgww1q8JTdR-143" target="hcDw8LefCSgww1q8JTdR-144">
          <mxGeometry relative="1" as="geometry" />
        </mxCell>
        <mxCell id="hcDw8LefCSgww1q8JTdR-143" value="APPEND card TO data" style="rounded=1;whiteSpace=wrap;html=1;" vertex="1" parent="1">
          <mxGeometry x="1265" y="430" width="230" height="40" as="geometry" />
        </mxCell>
        <mxCell id="hcDw8LefCSgww1q8JTdR-146" value="" style="edgeStyle=orthogonalEdgeStyle;rounded=0;orthogonalLoop=1;jettySize=auto;html=1;" edge="1" parent="1" source="hcDw8LefCSgww1q8JTdR-144" target="hcDw8LefCSgww1q8JTdR-145">
          <mxGeometry relative="1" as="geometry" />
        </mxCell>
        <mxCell id="hcDw8LefCSgww1q8JTdR-144" value="APPEND 0 TO data" style="rounded=1;whiteSpace=wrap;html=1;" vertex="1" parent="1">
          <mxGeometry x="1265" y="510" width="230" height="40" as="geometry" />
        </mxCell>
        <mxCell id="hcDw8LefCSgww1q8JTdR-149" value="" style="edgeStyle=orthogonalEdgeStyle;rounded=0;orthogonalLoop=1;jettySize=auto;html=1;" edge="1" parent="1" source="hcDw8LefCSgww1q8JTdR-145" target="hcDw8LefCSgww1q8JTdR-148">
          <mxGeometry relative="1" as="geometry" />
        </mxCell>
        <mxCell id="hcDw8LefCSgww1q8JTdR-145" value="APPEND 0 TO data" style="rounded=1;whiteSpace=wrap;html=1;" vertex="1" parent="1">
          <mxGeometry x="1265" y="590" width="230" height="40" as="geometry" />
        </mxCell>
        <mxCell id="hcDw8LefCSgww1q8JTdR-151" value="" style="edgeStyle=orthogonalEdgeStyle;rounded=0;orthogonalLoop=1;jettySize=auto;html=1;" edge="1" parent="1" source="hcDw8LefCSgww1q8JTdR-148" target="hcDw8LefCSgww1q8JTdR-150">
          <mxGeometry relative="1" as="geometry" />
        </mxCell>
        <mxCell id="hcDw8LefCSgww1q8JTdR-148" value="print_title(&quot;Confirm Registeration Details&quot;)" style="rounded=1;whiteSpace=wrap;html=1;" vertex="1" parent="1">
          <mxGeometry x="1265" y="670" width="230" height="40" as="geometry" />
        </mxCell>
        <mxCell id="hcDw8LefCSgww1q8JTdR-150" value="4" style="ellipse;whiteSpace=wrap;html=1;aspect=fixed;" vertex="1" parent="1">
          <mxGeometry x="1360" y="750" width="40" height="40" as="geometry" />
        </mxCell>
      </root>
    </mxGraphModel>
  </diagram>
  <diagram id="JDbz982rP4CvaXAtnadK" name="Page-2">
    <mxGraphModel dx="1444" dy="876" grid="1" gridSize="10" guides="1" tooltips="1" connect="1" arrows="1" fold="1" page="1" pageScale="1" pageWidth="3300" pageHeight="4681" math="0" shadow="0">
      <root>
        <mxCell id="OUHFac_q8Ri_ZJMlJ3-6-0" />
        <mxCell id="OUHFac_q8Ri_ZJMlJ3-6-1" parent="OUHFac_q8Ri_ZJMlJ3-6-0" />
        <mxCell id="eQ3unG5JYTWfye-ZA8Xf-8" style="edgeStyle=orthogonalEdgeStyle;rounded=0;orthogonalLoop=1;jettySize=auto;html=1;entryX=0.5;entryY=0;entryDx=0;entryDy=0;" edge="1" parent="OUHFac_q8Ri_ZJMlJ3-6-1" source="eQ3unG5JYTWfye-ZA8Xf-1" target="eQ3unG5JYTWfye-ZA8Xf-4">
          <mxGeometry relative="1" as="geometry" />
        </mxCell>
        <mxCell id="eQ3unG5JYTWfye-ZA8Xf-1" value="4" style="ellipse;whiteSpace=wrap;html=1;aspect=fixed;" vertex="1" parent="OUHFac_q8Ri_ZJMlJ3-6-1">
          <mxGeometry x="330" y="140" width="40" height="40" as="geometry" />
        </mxCell>
        <mxCell id="eQ3unG5JYTWfye-ZA8Xf-2" value="" style="group" vertex="1" connectable="0" parent="OUHFac_q8Ri_ZJMlJ3-6-1">
          <mxGeometry x="240" y="250" width="230" height="90" as="geometry" />
        </mxCell>
        <mxCell id="eQ3unG5JYTWfye-ZA8Xf-3" value="" style="shape=hexagon;perimeter=hexagonPerimeter2;whiteSpace=wrap;html=1;fixedSize=1;" vertex="1" parent="eQ3unG5JYTWfye-ZA8Xf-2">
          <mxGeometry width="230.00000000000003" height="90" as="geometry" />
        </mxCell>
        <mxCell id="eQ3unG5JYTWfye-ZA8Xf-4" value="i" style="text;html=1;strokeColor=none;fillColor=none;align=center;verticalAlign=middle;whiteSpace=wrap;rounded=0;" vertex="1" parent="eQ3unG5JYTWfye-ZA8Xf-2">
          <mxGeometry x="87.61904761904762" width="43.80952380952381" height="20" as="geometry" />
        </mxCell>
        <mxCell id="eQ3unG5JYTWfye-ZA8Xf-5" value="0" style="text;html=1;strokeColor=none;fillColor=none;align=center;verticalAlign=middle;whiteSpace=wrap;rounded=0;" vertex="1" parent="eQ3unG5JYTWfye-ZA8Xf-2">
          <mxGeometry x="10.952380952380953" y="35" width="43.80952380952381" height="20" as="geometry" />
        </mxCell>
        <mxCell id="eQ3unG5JYTWfye-ZA8Xf-6" value="1" style="text;html=1;strokeColor=none;fillColor=none;align=center;verticalAlign=middle;whiteSpace=wrap;rounded=0;" vertex="1" parent="eQ3unG5JYTWfye-ZA8Xf-2">
          <mxGeometry x="87.61904761904762" y="70" width="43.80952380952381" height="20" as="geometry" />
        </mxCell>
        <mxCell id="eQ3unG5JYTWfye-ZA8Xf-7" value="data" style="text;html=1;strokeColor=none;fillColor=none;align=center;verticalAlign=middle;whiteSpace=wrap;rounded=0;" vertex="1" parent="eQ3unG5JYTWfye-ZA8Xf-2">
          <mxGeometry x="164.2857142857143" y="35" width="43.80952380952381" height="20" as="geometry" />
        </mxCell>
        <mxCell id="eQ3unG5JYTWfye-ZA8Xf-14" style="edgeStyle=orthogonalEdgeStyle;rounded=0;orthogonalLoop=1;jettySize=auto;html=1;entryX=0.5;entryY=0;entryDx=0;entryDy=0;" edge="1" parent="OUHFac_q8Ri_ZJMlJ3-6-1" source="eQ3unG5JYTWfye-ZA8Xf-9" target="eQ3unG5JYTWfye-ZA8Xf-11">
          <mxGeometry relative="1" as="geometry" />
        </mxCell>
        <mxCell id="eQ3unG5JYTWfye-ZA8Xf-25" style="edgeStyle=orthogonalEdgeStyle;rounded=0;orthogonalLoop=1;jettySize=auto;html=1;" edge="1" parent="OUHFac_q8Ri_ZJMlJ3-6-1" source="eQ3unG5JYTWfye-ZA8Xf-9" target="eQ3unG5JYTWfye-ZA8Xf-16">
          <mxGeometry relative="1" as="geometry">
            <Array as="points">
              <mxPoint x="460" y="450" />
              <mxPoint x="460" y="700" />
              <mxPoint x="355" y="700" />
            </Array>
          </mxGeometry>
        </mxCell>
        <mxCell id="eQ3unG5JYTWfye-ZA8Xf-9" value="k == 3" style="rhombus;whiteSpace=wrap;html=1;" vertex="1" parent="OUHFac_q8Ri_ZJMlJ3-6-1">
          <mxGeometry x="300" y="400" width="110" height="100" as="geometry" />
        </mxCell>
        <mxCell id="eQ3unG5JYTWfye-ZA8Xf-10" value="" style="edgeStyle=orthogonalEdgeStyle;rounded=0;orthogonalLoop=1;jettySize=auto;html=1;" edge="1" parent="OUHFac_q8Ri_ZJMlJ3-6-1" source="eQ3unG5JYTWfye-ZA8Xf-3" target="eQ3unG5JYTWfye-ZA8Xf-9">
          <mxGeometry relative="1" as="geometry" />
        </mxCell>
        <mxCell id="eQ3unG5JYTWfye-ZA8Xf-15" value="" style="edgeStyle=orthogonalEdgeStyle;rounded=0;orthogonalLoop=1;jettySize=auto;html=1;" edge="1" parent="OUHFac_q8Ri_ZJMlJ3-6-1" source="eQ3unG5JYTWfye-ZA8Xf-11" target="eQ3unG5JYTWfye-ZA8Xf-12">
          <mxGeometry relative="1" as="geometry" />
        </mxCell>
        <mxCell id="eQ3unG5JYTWfye-ZA8Xf-11" value="k += 1" style="rounded=1;whiteSpace=wrap;html=1;" vertex="1" parent="OUHFac_q8Ri_ZJMlJ3-6-1">
          <mxGeometry x="282" y="530" width="145" height="40" as="geometry" />
        </mxCell>
        <mxCell id="eQ3unG5JYTWfye-ZA8Xf-21" style="edgeStyle=orthogonalEdgeStyle;rounded=0;orthogonalLoop=1;jettySize=auto;html=1;" edge="1" parent="OUHFac_q8Ri_ZJMlJ3-6-1">
          <mxGeometry relative="1" as="geometry">
            <mxPoint x="200" y="292" as="targetPoint" />
            <mxPoint x="282.5" y="642" as="sourcePoint" />
          </mxGeometry>
        </mxCell>
        <mxCell id="eQ3unG5JYTWfye-ZA8Xf-12" value="CONTINUE" style="rounded=1;whiteSpace=wrap;html=1;" vertex="1" parent="OUHFac_q8Ri_ZJMlJ3-6-1">
          <mxGeometry x="282.5" y="620" width="145" height="40" as="geometry" />
        </mxCell>
        <mxCell id="eQ3unG5JYTWfye-ZA8Xf-22" style="edgeStyle=orthogonalEdgeStyle;rounded=0;orthogonalLoop=1;jettySize=auto;html=1;entryX=0.5;entryY=0;entryDx=0;entryDy=0;" edge="1" parent="OUHFac_q8Ri_ZJMlJ3-6-1" source="eQ3unG5JYTWfye-ZA8Xf-16" target="eQ3unG5JYTWfye-ZA8Xf-17">
          <mxGeometry relative="1" as="geometry" />
        </mxCell>
        <mxCell id="eQ3unG5JYTWfye-ZA8Xf-16" value="PRINT(data_clients[0][k] + &quot;: &quot; + str(i))" style="rounded=1;whiteSpace=wrap;html=1;" vertex="1" parent="OUHFac_q8Ri_ZJMlJ3-6-1">
          <mxGeometry x="282.5" y="730" width="145" height="40" as="geometry" />
        </mxCell>
        <mxCell id="eQ3unG5JYTWfye-ZA8Xf-19" style="edgeStyle=orthogonalEdgeStyle;rounded=0;orthogonalLoop=1;jettySize=auto;html=1;entryX=0.5;entryY=1;entryDx=0;entryDy=0;" edge="1" parent="OUHFac_q8Ri_ZJMlJ3-6-1" source="eQ3unG5JYTWfye-ZA8Xf-17" target="eQ3unG5JYTWfye-ZA8Xf-18">
          <mxGeometry relative="1" as="geometry" />
        </mxCell>
        <mxCell id="eQ3unG5JYTWfye-ZA8Xf-17" value="k += 1" style="rounded=1;whiteSpace=wrap;html=1;" vertex="1" parent="OUHFac_q8Ri_ZJMlJ3-6-1">
          <mxGeometry x="282.5" y="810" width="145" height="40" as="geometry" />
        </mxCell>
        <mxCell id="eQ3unG5JYTWfye-ZA8Xf-20" style="edgeStyle=orthogonalEdgeStyle;rounded=0;orthogonalLoop=1;jettySize=auto;html=1;entryX=0;entryY=0.5;entryDx=0;entryDy=0;" edge="1" parent="OUHFac_q8Ri_ZJMlJ3-6-1" source="eQ3unG5JYTWfye-ZA8Xf-18" target="eQ3unG5JYTWfye-ZA8Xf-3">
          <mxGeometry relative="1" as="geometry" />
        </mxCell>
        <mxCell id="eQ3unG5JYTWfye-ZA8Xf-18" value="i" style="ellipse;whiteSpace=wrap;html=1;aspect=fixed;" vertex="1" parent="OUHFac_q8Ri_ZJMlJ3-6-1">
          <mxGeometry x="120" y="275" width="40" height="40" as="geometry" />
        </mxCell>
        <mxCell id="eQ3unG5JYTWfye-ZA8Xf-24" value="True" style="text;html=1;align=center;verticalAlign=middle;resizable=0;points=[];autosize=1;strokeColor=none;" vertex="1" parent="OUHFac_q8Ri_ZJMlJ3-6-1">
          <mxGeometry x="360" y="490" width="40" height="20" as="geometry" />
        </mxCell>
        <mxCell id="eQ3unG5JYTWfye-ZA8Xf-26" value="False" style="text;html=1;align=center;verticalAlign=middle;resizable=0;points=[];autosize=1;strokeColor=none;" vertex="1" parent="OUHFac_q8Ri_ZJMlJ3-6-1">
          <mxGeometry x="404" y="430" width="40" height="20" as="geometry" />
        </mxCell>
        <mxCell id="eQ3unG5JYTWfye-ZA8Xf-30" value="" style="edgeStyle=orthogonalEdgeStyle;rounded=0;orthogonalLoop=1;jettySize=auto;html=1;" edge="1" parent="OUHFac_q8Ri_ZJMlJ3-6-1" source="eQ3unG5JYTWfye-ZA8Xf-27" target="eQ3unG5JYTWfye-ZA8Xf-28">
          <mxGeometry relative="1" as="geometry" />
        </mxCell>
        <mxCell id="eQ3unG5JYTWfye-ZA8Xf-27" value="DECLARE menu = [&quot;Confirm&quot;, &quot;Return&quot;]" style="rounded=1;whiteSpace=wrap;html=1;" vertex="1" parent="OUHFac_q8Ri_ZJMlJ3-6-1">
          <mxGeometry x="234" y="920" width="230" height="40" as="geometry" />
        </mxCell>
        <mxCell id="eQ3unG5JYTWfye-ZA8Xf-32" value="" style="edgeStyle=orthogonalEdgeStyle;rounded=0;orthogonalLoop=1;jettySize=auto;html=1;" edge="1" parent="OUHFac_q8Ri_ZJMlJ3-6-1" source="eQ3unG5JYTWfye-ZA8Xf-28" target="eQ3unG5JYTWfye-ZA8Xf-29">
          <mxGeometry relative="1" as="geometry" />
        </mxCell>
        <mxCell id="eQ3unG5JYTWfye-ZA8Xf-28" value="general_menu(menu)" style="shape=process;whiteSpace=wrap;html=1;backgroundOutline=1;" vertex="1" parent="OUHFac_q8Ri_ZJMlJ3-6-1">
          <mxGeometry x="229" y="1010" width="240" height="40" as="geometry" />
        </mxCell>
        <mxCell id="eQ3unG5JYTWfye-ZA8Xf-34" value="" style="edgeStyle=orthogonalEdgeStyle;rounded=0;orthogonalLoop=1;jettySize=auto;html=1;" edge="1" parent="OUHFac_q8Ri_ZJMlJ3-6-1" source="eQ3unG5JYTWfye-ZA8Xf-29" target="eQ3unG5JYTWfye-ZA8Xf-33">
          <mxGeometry relative="1" as="geometry" />
        </mxCell>
        <mxCell id="eQ3unG5JYTWfye-ZA8Xf-29" value="PRINT(&quot;Please Select: &quot;)" style="rounded=1;whiteSpace=wrap;html=1;" vertex="1" parent="OUHFac_q8Ri_ZJMlJ3-6-1">
          <mxGeometry x="234" y="1090" width="230" height="40" as="geometry" />
        </mxCell>
        <mxCell id="eQ3unG5JYTWfye-ZA8Xf-36" value="" style="edgeStyle=orthogonalEdgeStyle;rounded=0;orthogonalLoop=1;jettySize=auto;html=1;" edge="1" parent="OUHFac_q8Ri_ZJMlJ3-6-1" source="eQ3unG5JYTWfye-ZA8Xf-33" target="eQ3unG5JYTWfye-ZA8Xf-35">
          <mxGeometry relative="1" as="geometry" />
        </mxCell>
        <mxCell id="eQ3unG5JYTWfye-ZA8Xf-33" value="READ choice" style="shape=parallelogram;perimeter=parallelogramPerimeter;whiteSpace=wrap;html=1;fixedSize=1;" vertex="1" parent="OUHFac_q8Ri_ZJMlJ3-6-1">
          <mxGeometry x="235" y="1170" width="229" height="50" as="geometry" />
        </mxCell>
        <mxCell id="eQ3unG5JYTWfye-ZA8Xf-38" value="" style="edgeStyle=orthogonalEdgeStyle;rounded=0;orthogonalLoop=1;jettySize=auto;html=1;" edge="1" parent="OUHFac_q8Ri_ZJMlJ3-6-1" source="eQ3unG5JYTWfye-ZA8Xf-35" target="eQ3unG5JYTWfye-ZA8Xf-37">
          <mxGeometry relative="1" as="geometry" />
        </mxCell>
        <mxCell id="eQ3unG5JYTWfye-ZA8Xf-40" style="edgeStyle=orthogonalEdgeStyle;rounded=0;orthogonalLoop=1;jettySize=auto;html=1;" edge="1" parent="OUHFac_q8Ri_ZJMlJ3-6-1" source="eQ3unG5JYTWfye-ZA8Xf-35">
          <mxGeometry relative="1" as="geometry">
            <mxPoint x="349" y="980" as="targetPoint" />
            <Array as="points">
              <mxPoint x="200" y="1320" />
              <mxPoint x="200" y="980" />
            </Array>
          </mxGeometry>
        </mxCell>
        <mxCell id="eQ3unG5JYTWfye-ZA8Xf-35" value="choice == &#39;1&#39; OR choice == &#39;2&#39;" style="rhombus;whiteSpace=wrap;html=1;" vertex="1" parent="OUHFac_q8Ri_ZJMlJ3-6-1">
          <mxGeometry x="248.5" y="1270" width="201" height="100" as="geometry" />
        </mxCell>
        <mxCell id="eQ3unG5JYTWfye-ZA8Xf-48" style="edgeStyle=orthogonalEdgeStyle;rounded=0;orthogonalLoop=1;jettySize=auto;html=1;entryX=0.5;entryY=0;entryDx=0;entryDy=0;" edge="1" parent="OUHFac_q8Ri_ZJMlJ3-6-1" source="eQ3unG5JYTWfye-ZA8Xf-37" target="eQ3unG5JYTWfye-ZA8Xf-45">
          <mxGeometry relative="1" as="geometry">
            <Array as="points">
              <mxPoint x="530" y="1430" />
              <mxPoint x="530" y="225" />
              <mxPoint x="735" y="225" />
            </Array>
          </mxGeometry>
        </mxCell>
        <mxCell id="eQ3unG5JYTWfye-ZA8Xf-37" value="BREAK" style="rounded=1;whiteSpace=wrap;html=1;" vertex="1" parent="OUHFac_q8Ri_ZJMlJ3-6-1">
          <mxGeometry x="276.5" y="1410" width="145" height="40" as="geometry" />
        </mxCell>
        <mxCell id="eQ3unG5JYTWfye-ZA8Xf-39" value="True" style="text;html=1;align=center;verticalAlign=middle;resizable=0;points=[];autosize=1;strokeColor=none;" vertex="1" parent="OUHFac_q8Ri_ZJMlJ3-6-1">
          <mxGeometry x="350" y="1370" width="40" height="20" as="geometry" />
        </mxCell>
        <mxCell id="eQ3unG5JYTWfye-ZA8Xf-43" style="edgeStyle=orthogonalEdgeStyle;rounded=0;orthogonalLoop=1;jettySize=auto;html=1;entryX=0.5;entryY=0;entryDx=0;entryDy=0;" edge="1" parent="OUHFac_q8Ri_ZJMlJ3-6-1" source="eQ3unG5JYTWfye-ZA8Xf-3" target="eQ3unG5JYTWfye-ZA8Xf-27">
          <mxGeometry relative="1" as="geometry">
            <Array as="points">
              <mxPoint x="490" y="295" />
              <mxPoint x="490" y="880" />
              <mxPoint x="349" y="880" />
            </Array>
          </mxGeometry>
        </mxCell>
        <mxCell id="eQ3unG5JYTWfye-ZA8Xf-44" value="False" style="text;html=1;align=center;verticalAlign=middle;resizable=0;points=[];autosize=1;strokeColor=none;" vertex="1" parent="OUHFac_q8Ri_ZJMlJ3-6-1">
          <mxGeometry x="211" y="1300" width="40" height="20" as="geometry" />
        </mxCell>
        <mxCell id="eQ3unG5JYTWfye-ZA8Xf-47" style="edgeStyle=orthogonalEdgeStyle;rounded=0;orthogonalLoop=1;jettySize=auto;html=1;entryX=0;entryY=0.5;entryDx=0;entryDy=0;" edge="1" parent="OUHFac_q8Ri_ZJMlJ3-6-1" source="eQ3unG5JYTWfye-ZA8Xf-45" target="eQ3unG5JYTWfye-ZA8Xf-46">
          <mxGeometry relative="1" as="geometry" />
        </mxCell>
        <mxCell id="eQ3unG5JYTWfye-ZA8Xf-57" style="edgeStyle=orthogonalEdgeStyle;rounded=0;orthogonalLoop=1;jettySize=auto;html=1;entryX=0.5;entryY=0;entryDx=0;entryDy=0;" edge="1" parent="OUHFac_q8Ri_ZJMlJ3-6-1" source="eQ3unG5JYTWfye-ZA8Xf-45" target="eQ3unG5JYTWfye-ZA8Xf-53">
          <mxGeometry relative="1" as="geometry" />
        </mxCell>
        <mxCell id="eQ3unG5JYTWfye-ZA8Xf-45" value="choice == &#39;1&#39;" style="rhombus;whiteSpace=wrap;html=1;" vertex="1" parent="OUHFac_q8Ri_ZJMlJ3-6-1">
          <mxGeometry x="680" y="245" width="110" height="100" as="geometry" />
        </mxCell>
        <mxCell id="eQ3unG5JYTWfye-ZA8Xf-50" value="" style="edgeStyle=orthogonalEdgeStyle;rounded=0;orthogonalLoop=1;jettySize=auto;html=1;" edge="1" parent="OUHFac_q8Ri_ZJMlJ3-6-1" source="eQ3unG5JYTWfye-ZA8Xf-46" target="eQ3unG5JYTWfye-ZA8Xf-49">
          <mxGeometry relative="1" as="geometry" />
        </mxCell>
        <mxCell id="eQ3unG5JYTWfye-ZA8Xf-46" value="choice == &#39;2&#39;" style="rhombus;whiteSpace=wrap;html=1;" vertex="1" parent="OUHFac_q8Ri_ZJMlJ3-6-1">
          <mxGeometry x="940" y="245" width="110" height="100" as="geometry" />
        </mxCell>
        <mxCell id="eQ3unG5JYTWfye-ZA8Xf-49" value="RETURN" style="ellipse;whiteSpace=wrap;html=1;" vertex="1" parent="OUHFac_q8Ri_ZJMlJ3-6-1">
          <mxGeometry x="950" y="390" width="90" height="80" as="geometry" />
        </mxCell>
        <mxCell id="eQ3unG5JYTWfye-ZA8Xf-51" value="" style="group" vertex="1" connectable="0" parent="OUHFac_q8Ri_ZJMlJ3-6-1">
          <mxGeometry x="626" y="390" width="230" height="90" as="geometry" />
        </mxCell>
        <mxCell id="eQ3unG5JYTWfye-ZA8Xf-52" value="" style="shape=hexagon;perimeter=hexagonPerimeter2;whiteSpace=wrap;html=1;fixedSize=1;" vertex="1" parent="eQ3unG5JYTWfye-ZA8Xf-51">
          <mxGeometry width="230.00000000000003" height="90" as="geometry" />
        </mxCell>
        <mxCell id="eQ3unG5JYTWfye-ZA8Xf-53" value="i" style="text;html=1;strokeColor=none;fillColor=none;align=center;verticalAlign=middle;whiteSpace=wrap;rounded=0;" vertex="1" parent="eQ3unG5JYTWfye-ZA8Xf-51">
          <mxGeometry x="87.61904761904762" width="43.80952380952381" height="20" as="geometry" />
        </mxCell>
        <mxCell id="eQ3unG5JYTWfye-ZA8Xf-54" value="0" style="text;html=1;strokeColor=none;fillColor=none;align=center;verticalAlign=middle;whiteSpace=wrap;rounded=0;" vertex="1" parent="eQ3unG5JYTWfye-ZA8Xf-51">
          <mxGeometry x="10.952380952380953" y="35" width="43.80952380952381" height="20" as="geometry" />
        </mxCell>
        <mxCell id="eQ3unG5JYTWfye-ZA8Xf-55" value="1" style="text;html=1;strokeColor=none;fillColor=none;align=center;verticalAlign=middle;whiteSpace=wrap;rounded=0;" vertex="1" parent="eQ3unG5JYTWfye-ZA8Xf-51">
          <mxGeometry x="87.61904761904762" y="70" width="43.80952380952381" height="20" as="geometry" />
        </mxCell>
        <mxCell id="eQ3unG5JYTWfye-ZA8Xf-56" value="data" style="text;html=1;strokeColor=none;fillColor=none;align=center;verticalAlign=middle;whiteSpace=wrap;rounded=0;" vertex="1" parent="eQ3unG5JYTWfye-ZA8Xf-51">
          <mxGeometry x="164.2857142857143" y="35" width="43.80952380952381" height="20" as="geometry" />
        </mxCell>
        <mxCell id="eQ3unG5JYTWfye-ZA8Xf-62" value="" style="edgeStyle=orthogonalEdgeStyle;rounded=0;orthogonalLoop=1;jettySize=auto;html=1;" edge="1" parent="OUHFac_q8Ri_ZJMlJ3-6-1" source="eQ3unG5JYTWfye-ZA8Xf-59" target="eQ3unG5JYTWfye-ZA8Xf-61">
          <mxGeometry relative="1" as="geometry" />
        </mxCell>
        <mxCell id="eQ3unG5JYTWfye-ZA8Xf-59" value="DECLARE menu = [&quot;Confirm&quot;, &quot;Return&quot;]" style="rounded=1;whiteSpace=wrap;html=1;" vertex="1" parent="OUHFac_q8Ri_ZJMlJ3-6-1">
          <mxGeometry x="626" y="520" width="230" height="40" as="geometry" />
        </mxCell>
        <mxCell id="eQ3unG5JYTWfye-ZA8Xf-60" value="" style="edgeStyle=orthogonalEdgeStyle;rounded=0;orthogonalLoop=1;jettySize=auto;html=1;" edge="1" parent="OUHFac_q8Ri_ZJMlJ3-6-1" source="eQ3unG5JYTWfye-ZA8Xf-52" target="eQ3unG5JYTWfye-ZA8Xf-59">
          <mxGeometry relative="1" as="geometry" />
        </mxCell>
        <mxCell id="eQ3unG5JYTWfye-ZA8Xf-65" style="edgeStyle=orthogonalEdgeStyle;rounded=0;orthogonalLoop=1;jettySize=auto;html=1;entryX=0.5;entryY=1;entryDx=0;entryDy=0;" edge="1" parent="OUHFac_q8Ri_ZJMlJ3-6-1" source="eQ3unG5JYTWfye-ZA8Xf-61" target="eQ3unG5JYTWfye-ZA8Xf-63">
          <mxGeometry relative="1" as="geometry" />
        </mxCell>
        <mxCell id="eQ3unG5JYTWfye-ZA8Xf-61" value="DECLARE menu = [&quot;Confirm&quot;, &quot;Return&quot;]" style="rounded=1;whiteSpace=wrap;html=1;" vertex="1" parent="OUHFac_q8Ri_ZJMlJ3-6-1">
          <mxGeometry x="626" y="600" width="230" height="40" as="geometry" />
        </mxCell>
        <mxCell id="eQ3unG5JYTWfye-ZA8Xf-64" style="edgeStyle=orthogonalEdgeStyle;rounded=0;orthogonalLoop=1;jettySize=auto;html=1;entryX=0;entryY=0.5;entryDx=0;entryDy=0;" edge="1" parent="OUHFac_q8Ri_ZJMlJ3-6-1" source="eQ3unG5JYTWfye-ZA8Xf-63" target="eQ3unG5JYTWfye-ZA8Xf-52">
          <mxGeometry relative="1" as="geometry" />
        </mxCell>
        <mxCell id="eQ3unG5JYTWfye-ZA8Xf-63" value="i" style="ellipse;whiteSpace=wrap;html=1;aspect=fixed;" vertex="1" parent="OUHFac_q8Ri_ZJMlJ3-6-1">
          <mxGeometry x="550" y="415" width="40" height="40" as="geometry" />
        </mxCell>
        <mxCell id="eQ3unG5JYTWfye-ZA8Xf-68" value="" style="edgeStyle=orthogonalEdgeStyle;rounded=0;orthogonalLoop=1;jettySize=auto;html=1;" edge="1" parent="OUHFac_q8Ri_ZJMlJ3-6-1" source="eQ3unG5JYTWfye-ZA8Xf-66" target="eQ3unG5JYTWfye-ZA8Xf-67">
          <mxGeometry relative="1" as="geometry" />
        </mxCell>
        <mxCell id="eQ3unG5JYTWfye-ZA8Xf-66" value="APPEND data TO data_clients" style="rounded=1;whiteSpace=wrap;html=1;" vertex="1" parent="OUHFac_q8Ri_ZJMlJ3-6-1">
          <mxGeometry x="626" y="700" width="230" height="40" as="geometry" />
        </mxCell>
        <mxCell id="eQ3unG5JYTWfye-ZA8Xf-71" value="" style="edgeStyle=orthogonalEdgeStyle;rounded=0;orthogonalLoop=1;jettySize=auto;html=1;exitX=0.499;exitY=0.91;exitDx=0;exitDy=0;exitPerimeter=0;" edge="1" parent="OUHFac_q8Ri_ZJMlJ3-6-1" source="eQ3unG5JYTWfye-ZA8Xf-67" target="eQ3unG5JYTWfye-ZA8Xf-70">
          <mxGeometry relative="1" as="geometry" />
        </mxCell>
        <mxCell id="eQ3unG5JYTWfye-ZA8Xf-67" value="&lt;span&gt;WRITE data_clients INTO&amp;nbsp;./data/clients.txt&lt;/span&gt;" style="shape=document;whiteSpace=wrap;html=1;boundedLbl=1;size=0.25;" vertex="1" parent="OUHFac_q8Ri_ZJMlJ3-6-1">
          <mxGeometry x="622.25" y="790" width="237.5" height="80" as="geometry" />
        </mxCell>
        <mxCell id="eQ3unG5JYTWfye-ZA8Xf-69" style="edgeStyle=orthogonalEdgeStyle;rounded=0;orthogonalLoop=1;jettySize=auto;html=1;entryX=0.5;entryY=0;entryDx=0;entryDy=0;" edge="1" parent="OUHFac_q8Ri_ZJMlJ3-6-1" source="eQ3unG5JYTWfye-ZA8Xf-52" target="eQ3unG5JYTWfye-ZA8Xf-66">
          <mxGeometry relative="1" as="geometry">
            <Array as="points">
              <mxPoint x="890" y="435" />
              <mxPoint x="890" y="670" />
              <mxPoint x="741" y="670" />
            </Array>
          </mxGeometry>
        </mxCell>
        <mxCell id="eQ3unG5JYTWfye-ZA8Xf-95" value="" style="edgeStyle=orthogonalEdgeStyle;rounded=0;orthogonalLoop=1;jettySize=auto;html=1;" edge="1" parent="OUHFac_q8Ri_ZJMlJ3-6-1" source="eQ3unG5JYTWfye-ZA8Xf-70" target="eQ3unG5JYTWfye-ZA8Xf-73">
          <mxGeometry relative="1" as="geometry" />
        </mxCell>
        <mxCell id="eQ3unG5JYTWfye-ZA8Xf-70" value="DECLARE menu = [&quot;Confirm&quot;, &quot;Return&quot;]" style="rounded=1;whiteSpace=wrap;html=1;" vertex="1" parent="OUHFac_q8Ri_ZJMlJ3-6-1">
          <mxGeometry x="626" y="920" width="230" height="40" as="geometry" />
        </mxCell>
        <mxCell id="eQ3unG5JYTWfye-ZA8Xf-72" style="edgeStyle=orthogonalEdgeStyle;rounded=0;orthogonalLoop=1;jettySize=auto;html=1;entryX=0.625;entryY=0.033;entryDx=0;entryDy=0;entryPerimeter=0;" edge="1" parent="OUHFac_q8Ri_ZJMlJ3-6-1" source="eQ3unG5JYTWfye-ZA8Xf-73" target="eQ3unG5JYTWfye-ZA8Xf-76">
          <mxGeometry relative="1" as="geometry" />
        </mxCell>
        <mxCell id="eQ3unG5JYTWfye-ZA8Xf-73" value="print_title(&quot;Registeration information has successfuly recorded.&quot;)" style="rounded=1;whiteSpace=wrap;html=1;" vertex="1" parent="OUHFac_q8Ri_ZJMlJ3-6-1">
          <mxGeometry x="627" y="1000" width="230" height="40" as="geometry" />
        </mxCell>
        <mxCell id="eQ3unG5JYTWfye-ZA8Xf-74" value="" style="group" vertex="1" connectable="0" parent="OUHFac_q8Ri_ZJMlJ3-6-1">
          <mxGeometry x="627" y="1100" width="230" height="90" as="geometry" />
        </mxCell>
        <mxCell id="eQ3unG5JYTWfye-ZA8Xf-75" value="" style="shape=hexagon;perimeter=hexagonPerimeter2;whiteSpace=wrap;html=1;fixedSize=1;" vertex="1" parent="eQ3unG5JYTWfye-ZA8Xf-74">
          <mxGeometry width="230.00000000000003" height="90" as="geometry" />
        </mxCell>
        <mxCell id="eQ3unG5JYTWfye-ZA8Xf-76" value="remaining" style="text;html=1;strokeColor=none;fillColor=none;align=center;verticalAlign=middle;whiteSpace=wrap;rounded=0;" vertex="1" parent="eQ3unG5JYTWfye-ZA8Xf-74">
          <mxGeometry x="87.61904761904762" width="43.80952380952381" height="20" as="geometry" />
        </mxCell>
        <mxCell id="eQ3unG5JYTWfye-ZA8Xf-77" value="5" style="text;html=1;strokeColor=none;fillColor=none;align=center;verticalAlign=middle;whiteSpace=wrap;rounded=0;" vertex="1" parent="eQ3unG5JYTWfye-ZA8Xf-74">
          <mxGeometry x="10.952380952380953" y="35" width="43.80952380952381" height="20" as="geometry" />
        </mxCell>
        <mxCell id="eQ3unG5JYTWfye-ZA8Xf-78" value="-1" style="text;html=1;strokeColor=none;fillColor=none;align=center;verticalAlign=middle;whiteSpace=wrap;rounded=0;" vertex="1" parent="eQ3unG5JYTWfye-ZA8Xf-74">
          <mxGeometry x="87.61904761904762" y="70" width="43.80952380952381" height="20" as="geometry" />
        </mxCell>
        <mxCell id="eQ3unG5JYTWfye-ZA8Xf-79" value="-1" style="text;html=1;strokeColor=none;fillColor=none;align=center;verticalAlign=middle;whiteSpace=wrap;rounded=0;" vertex="1" parent="eQ3unG5JYTWfye-ZA8Xf-74">
          <mxGeometry x="164.2857142857143" y="35" width="43.80952380952381" height="20" as="geometry" />
        </mxCell>
        <mxCell id="eQ3unG5JYTWfye-ZA8Xf-80" value="" style="edgeStyle=orthogonalEdgeStyle;rounded=0;orthogonalLoop=1;jettySize=auto;html=1;" edge="1" parent="OUHFac_q8Ri_ZJMlJ3-6-1" source="eQ3unG5JYTWfye-ZA8Xf-81" target="eQ3unG5JYTWfye-ZA8Xf-83">
          <mxGeometry relative="1" as="geometry" />
        </mxCell>
        <mxCell id="eQ3unG5JYTWfye-ZA8Xf-81" value="sys.stdout.write(&quot;\r&quot;)" style="rounded=1;whiteSpace=wrap;html=1;" vertex="1" parent="OUHFac_q8Ri_ZJMlJ3-6-1">
          <mxGeometry x="627" y="1250" width="230" height="40" as="geometry" />
        </mxCell>
        <mxCell id="eQ3unG5JYTWfye-ZA8Xf-82" value="" style="edgeStyle=orthogonalEdgeStyle;rounded=0;orthogonalLoop=1;jettySize=auto;html=1;" edge="1" parent="OUHFac_q8Ri_ZJMlJ3-6-1" source="eQ3unG5JYTWfye-ZA8Xf-83" target="eQ3unG5JYTWfye-ZA8Xf-85">
          <mxGeometry relative="1" as="geometry" />
        </mxCell>
        <mxCell id="eQ3unG5JYTWfye-ZA8Xf-83" value="sys.stdout.write(&quot;Will be directed IN {:2d}......&quot;.format(remaining))" style="rounded=1;whiteSpace=wrap;html=1;" vertex="1" parent="OUHFac_q8Ri_ZJMlJ3-6-1">
          <mxGeometry x="627" y="1330" width="230" height="40" as="geometry" />
        </mxCell>
        <mxCell id="eQ3unG5JYTWfye-ZA8Xf-84" value="" style="edgeStyle=orthogonalEdgeStyle;rounded=0;orthogonalLoop=1;jettySize=auto;html=1;" edge="1" parent="OUHFac_q8Ri_ZJMlJ3-6-1" source="eQ3unG5JYTWfye-ZA8Xf-85" target="eQ3unG5JYTWfye-ZA8Xf-87">
          <mxGeometry relative="1" as="geometry" />
        </mxCell>
        <mxCell id="eQ3unG5JYTWfye-ZA8Xf-85" value="sys.stdout.flush()" style="rounded=1;whiteSpace=wrap;html=1;" vertex="1" parent="OUHFac_q8Ri_ZJMlJ3-6-1">
          <mxGeometry x="627" y="1410" width="230" height="40" as="geometry" />
        </mxCell>
        <mxCell id="eQ3unG5JYTWfye-ZA8Xf-86" value="" style="edgeStyle=orthogonalEdgeStyle;rounded=0;orthogonalLoop=1;jettySize=auto;html=1;" edge="1" parent="OUHFac_q8Ri_ZJMlJ3-6-1" source="eQ3unG5JYTWfye-ZA8Xf-87" target="eQ3unG5JYTWfye-ZA8Xf-89">
          <mxGeometry relative="1" as="geometry" />
        </mxCell>
        <mxCell id="eQ3unG5JYTWfye-ZA8Xf-87" value="time.sleep(1)" style="rounded=1;whiteSpace=wrap;html=1;" vertex="1" parent="OUHFac_q8Ri_ZJMlJ3-6-1">
          <mxGeometry x="627" y="1490" width="230" height="40" as="geometry" />
        </mxCell>
        <mxCell id="eQ3unG5JYTWfye-ZA8Xf-88" style="edgeStyle=orthogonalEdgeStyle;rounded=0;orthogonalLoop=1;jettySize=auto;html=1;entryX=0;entryY=0.5;entryDx=0;entryDy=0;" edge="1" parent="OUHFac_q8Ri_ZJMlJ3-6-1" source="eQ3unG5JYTWfye-ZA8Xf-89" target="eQ3unG5JYTWfye-ZA8Xf-75">
          <mxGeometry relative="1" as="geometry">
            <Array as="points">
              <mxPoint x="607" y="1615" />
              <mxPoint x="607" y="1145" />
            </Array>
          </mxGeometry>
        </mxCell>
        <mxCell id="eQ3unG5JYTWfye-ZA8Xf-89" value="remaining" style="ellipse;whiteSpace=wrap;html=1;aspect=fixed;" vertex="1" parent="OUHFac_q8Ri_ZJMlJ3-6-1">
          <mxGeometry x="707" y="1580" width="70" height="70" as="geometry" />
        </mxCell>
        <mxCell id="eQ3unG5JYTWfye-ZA8Xf-90" value="" style="edgeStyle=orthogonalEdgeStyle;rounded=0;orthogonalLoop=1;jettySize=auto;html=1;" edge="1" parent="OUHFac_q8Ri_ZJMlJ3-6-1" source="eQ3unG5JYTWfye-ZA8Xf-91" target="eQ3unG5JYTWfye-ZA8Xf-92">
          <mxGeometry relative="1" as="geometry" />
        </mxCell>
        <mxCell id="eQ3unG5JYTWfye-ZA8Xf-91" value="sys.stdout.write(&quot;\n&quot;)" style="rounded=1;whiteSpace=wrap;html=1;" vertex="1" parent="OUHFac_q8Ri_ZJMlJ3-6-1">
          <mxGeometry x="627" y="1700" width="230" height="40" as="geometry" />
        </mxCell>
        <mxCell id="eQ3unG5JYTWfye-ZA8Xf-92" value="RETURN" style="ellipse;whiteSpace=wrap;html=1;" vertex="1" parent="OUHFac_q8Ri_ZJMlJ3-6-1">
          <mxGeometry x="697" y="1800" width="90" height="80" as="geometry" />
        </mxCell>
        <mxCell id="eQ3unG5JYTWfye-ZA8Xf-93" value="" style="edgeStyle=orthogonalEdgeStyle;rounded=0;orthogonalLoop=1;jettySize=auto;html=1;" edge="1" parent="OUHFac_q8Ri_ZJMlJ3-6-1" source="eQ3unG5JYTWfye-ZA8Xf-75" target="eQ3unG5JYTWfye-ZA8Xf-81">
          <mxGeometry relative="1" as="geometry" />
        </mxCell>
        <mxCell id="eQ3unG5JYTWfye-ZA8Xf-94" style="edgeStyle=orthogonalEdgeStyle;rounded=0;orthogonalLoop=1;jettySize=auto;html=1;entryX=0.5;entryY=0;entryDx=0;entryDy=0;" edge="1" parent="OUHFac_q8Ri_ZJMlJ3-6-1" source="eQ3unG5JYTWfye-ZA8Xf-75" target="eQ3unG5JYTWfye-ZA8Xf-91">
          <mxGeometry relative="1" as="geometry">
            <Array as="points">
              <mxPoint x="897" y="1145" />
              <mxPoint x="897" y="1670" />
              <mxPoint x="742" y="1670" />
            </Array>
          </mxGeometry>
        </mxCell>
      </root>
    </mxGraphModel>
  </diagram>
</mxfile>
